<svg width="20.000000" height="20.000000" viewBox="0 0 20 20" fill="none" xmlns="http://www.w3.org/2000/svg" xmlns:xlink="http://www.w3.org/1999/xlink">
	<defs/>
	<rect id="Icon/close" width="19.999998" height="19.999998" fill="#FFFFFF" fill-opacity="0"/>
	<path id="Union" d="M5.44214 4.55804L10 9.11612L14.5581 4.55804C14.8057 4.31058 15.1946 4.31058 15.4421 4.55804C15.6895 4.80554 15.6895 5.19446 15.4421 5.44193L10.884 10L15.4421 14.558C15.6895 14.8055 15.6895 15.1945 15.4421 15.4419C15.1946 15.6894 14.8057 15.6894 14.5581 15.4419L10 10.8839L5.44214 15.4419C5.19458 15.6894 4.80566 15.6894 4.55811 15.4419C4.31079 15.1945 4.31079 14.8055 4.55811 14.558L9.11621 10L4.55811 5.44193C4.31079 5.19446 4.31079 4.80554 4.55811 4.55804C4.80566 4.31058 5.19458 4.31058 5.44214 4.55804Z" clip-rule="evenodd" fill="#343839" fill-opacity="1.000000" fill-rule="evenodd"/>
</svg>
